{"title":"Rear Window(1954)MP-4","uid":12352087,"size":913776652,"categoryP":"video","categoryS":"movies","magnet":"?xt=urn:btih:0c15fbcef5fccedf688583f9b58644b54c4a18ea&amp;dn=Rear+Window%281954%29MP-4&amp;tr=udp%3A%2F%2Ftracker.openbittorrent.com%3A80&amp;tr=udp%3A%2F%2Fopen.demonii.com%3A1337&amp;tr=udp%3A%2F%2Ftracker.coppersurfer.tk%3A6969&amp;tr=udp%3A%2F%2Fexodus.desync.com%3A6969","seeders":3,"leechers":2,"uploader":"dascuba","files":1,"time":1441439153,"description":"Rear Window (1954)\nApproved  |  112 min  |  Mystery, Thriller  |  1954 (UK)\n8.6 Your rating:   -/10   Ratings: 8.6/10 from 283,757 users   \nReviews: 617 user | 170 critic\nA wheelchair bound photographer spies on his neighbours from his apartment window and becomes convinced one of them has committed murder.\n\nDirector: Alfred Hitchcock\nWriters: John Michael Hayes (screenplay), Cornell Woolrich (based on the short story by)\nStars: James Stewart, Grace Kelly, Wendell Corey \n\nGeneral\nComplete name                            : C:Rear WindowREAR_WINDOW_Title1.mp4\nFormat                                   : MPEG-4\nFormat profile                           : Base Media\nCodec ID                                 : isom\nFile size                                : 871 MiB\nDuration                                 : 1h 30mn\nOverall bit rate                         : 1 342 Kbps\nMovie name                               : REAR_WINDOW\nGenre                                    : Mystery\nWriting application                      : Lavf54.6.100\n\nVideo\nID                                       : 1\nFormat                                   : AVC\nFormat/Info                              : Advanced Video Codec\nFormat profile                           : Baseline@L3\nFormat settings, CABAC                   : No\nFormat settings, ReFrames                : 6 frames\nCodec ID                                 : avc1\nCodec ID/Info                            : Advanced Video Coding\nDuration                                 : 1h 30mn\nBit rate                                 : 1 196 Kbps\nWidth                                    : 720 pixels\nHeight                                   : 404 pixels\nDisplay aspect ratio                     : 16:9\nFrame rate mode                          : Constant\nFrame rate                               : 29.970 fps\nColor space                              : YUV\nChroma subsampling                       : 4:2:0\nBit depth                                : 8 bits\nScan type                                : Progressive\nBits/(Pixel*Frame)                       : 0.137\nStream size                              : 777 MiB (89%)\n\nAudio\nID                                       : 2\nFormat                                   : AAC\nFormat/Info                              : Advanced Audio Codec\nFormat profile                           : LC\nCodec ID                                 : 40\nDuration                                 : 1h 30mn\nBit rate mode                            : Constant\nBit rate                                 : 139 Kbps\nChannel(s)                               : 2 channels\nChannel positions                        : Front: L R\nSampling rate                            : 44.1 KHz\nCompression mode                         : Lossy\nStream size                              : 90.2 MiB (10%)","torrent":{"xt":"urn:btih:0c15fbcef5fccedf688583f9b58644b54c4a18ea","amp;dn":"Rear+Window%281954%29MP-4","amp;tr":["udp%3A%2F%2Ftracker.openbittorrent.com%3A80","udp%3A%2F%2Fopen.demonii.com%3A1337","udp%3A%2F%2Ftracker.coppersurfer.tk%3A6969","udp%3A%2F%2Fexodus.desync.com%3A6969"],"infoHash":"0c15fbcef5fccedf688583f9b58644b54c4a18ea","infoHashBuffer":{"type":"Buffer","data":[12,21,251,206,245,252,206,223,104,133,131,249,181,134,68,181,76,74,24,234]},"announce":[],"urlList":[]}}